<svg width="48" height="48" viewBox="0 0 48 48" fill="none" xmlns="http://www.w3.org/2000/svg">
<path d="M25.1556 21.7408C20.4545 19.0266 8.99388 23.484 5.96698 28.7267C4.60372 31.088 5.37644 33.415 8.03631 34.9507C10.9277 36.62 13.8165 36.0254 16.1354 37.3642C18.4744 38.7146 19.4093 41.5168 22.2752 43.1715C24.935 44.7071 27.3366 44.2128 28.6999 41.8516C31.7268 36.6089 29.8567 24.455 25.1556 21.7408ZM16.9291 15.8537C17.6669 13.1539 16.6467 10.5406 14.6509 10.0162C12.6551 9.4918 10.4395 11.2554 9.7017 13.9552C8.96389 16.6549 9.98412 19.2683 11.9799 19.7927C13.9757 20.3171 16.1913 18.5535 16.9291 15.8537ZM22.7563 17.3435C24.9059 17.8503 27.4551 15.5513 28.4503 12.2089C29.4454 8.86658 28.5091 5.74693 26.3595 5.24015C24.2099 4.73337 21.6606 7.03234 20.6655 10.3747C19.6704 13.7171 20.6069 16.8377 22.7563 17.3435ZM40.5607 24.9762C39.1087 23.51 36.336 23.9334 34.3662 25.9219C32.397 27.9108 31.9775 30.7114 33.4296 32.1776C34.8816 33.6438 37.6544 33.2203 39.6241 31.2318C41.5933 29.2429 42.0128 26.4423 40.5607 24.9762ZM30.1634 21.62C31.6771 23.2282 34.847 22.4793 37.244 19.9463C39.641 17.4133 40.3569 14.0568 38.8436 12.4479C37.3303 10.839 34.1601 11.5886 31.7631 14.1216C29.3661 16.6546 28.6497 20.0118 30.1634 21.62Z" fill="#F7CB2D"/>
</svg>
